<svg width="223" height="26" viewBox="0 0 223 26" fill="none" xmlns="http://www.w3.org/2000/svg">
<path d="M2.53125 24.375C2.23958 24.1875 2.01042 23.9479 1.84375 23.6562C1.65625 23.3646 1.51042 23.0521 1.40625 22.7188C1.28125 22.3854 1.1875 22.0417 1.125 21.6875C1.04167 21.3125 0.958333 20.9583 0.875 20.625C0.875 20.3333 0.9375 20.125 1.0625 20C1.1875 19.8542 1.32292 19.7188 1.46875 19.5938C1.96875 19.5729 2.41667 19.5312 2.8125 19.4688C3.20833 19.4062 3.59375 19.3438 3.96875 19.2812C4.34375 19.2188 4.71875 19.1667 5.09375 19.125C5.46875 19.0625 5.875 19.0312 6.3125 19.0312C6.625 18.3854 6.91667 17.7708 7.1875 17.1875C7.45833 16.5833 7.71875 16.0104 7.96875 15.4688C8.09375 14.9479 8.25 14.4688 8.4375 14.0312C8.64583 13.5729 8.84375 13.1458 9.03125 12.75C9.21875 12.3333 9.38542 11.9271 9.53125 11.5312C9.67708 11.1146 9.77083 10.6771 9.8125 10.2188C10.0625 9.48958 10.2812 8.82292 10.4688 8.21875C10.6771 7.59375 10.8333 6.85417 10.9375 6C10.1458 6.125 9.51042 6.25 9.03125 6.375C8.55208 6.47917 8.20833 6.58333 8 6.6875C7.58333 6.66667 7.25 6.58333 7 6.4375C6.77083 6.29167 6.58333 6.11458 6.4375 5.90625C6.29167 5.69792 6.16667 5.45833 6.0625 5.1875C5.95833 4.91667 5.83333 4.63542 5.6875 4.34375C5.77083 4.15625 5.79167 3.88542 5.75 3.53125C5.70833 3.15625 5.58333 2.88542 5.375 2.71875C5.54167 2.67708 5.66667 2.54167 5.75 2.3125C5.83333 2.0625 5.84375 1.875 5.78125 1.75C6.13542 1.64583 6.51042 1.58333 6.90625 1.5625C7.30208 1.52083 7.6875 1.48958 8.0625 1.46875C8.45833 1.42708 8.83333 1.38542 9.1875 1.34375C9.54167 1.28125 9.84375 1.16667 10.0938 1C11.1771 0.958333 12.3021 0.916667 13.4688 0.875C14.6562 0.833333 15.75 0.78125 16.75 0.71875C17.125 0.84375 17.5521 0.90625 18.0312 0.90625C18.5312 0.90625 19.0208 0.9375 19.5 1C20 1.0625 20.4375 1.19792 20.8125 1.40625C21.2083 1.61458 21.4792 1.97917 21.625 2.5C21.9375 2.54167 22.1667 2.625 22.3125 2.75C22.4792 2.875 22.5833 3.03125 22.625 3.21875C22.6667 3.38542 22.6771 3.58333 22.6562 3.8125C22.6562 4.02083 22.6562 4.22917 22.6562 4.4375C22.3229 4.6875 21.8958 4.89583 21.375 5.0625C20.875 5.20833 20.3229 5.33333 19.7188 5.4375C19.1146 5.52083 18.4792 5.58333 17.8125 5.625C17.1667 5.64583 16.5312 5.66667 15.9062 5.6875C15.8021 6.375 15.6146 7.1875 15.3438 8.125C15.0938 9.04167 14.8333 9.94792 14.5625 10.8438C14.2917 11.7188 14.0521 12.5104 13.8438 13.2188C13.6562 13.9062 13.5729 14.3542 13.5938 14.5625C13.3854 15.0417 13.2083 15.4479 13.0625 15.7812C12.9375 16.1146 12.8125 16.4271 12.6875 16.7188C12.5833 17.0104 12.4688 17.3021 12.3438 17.5938C12.2396 17.8646 12.1042 18.1771 11.9375 18.5312H14.0625C14.1042 18.7604 14.1979 18.9167 14.3438 19C14.4896 19.0833 14.6458 19.1562 14.8125 19.2188C14.9792 19.2812 15.125 19.3646 15.25 19.4688C15.3958 19.5521 15.4688 19.6979 15.4688 19.9062C15.8646 20.0104 16.1146 20.1667 16.2188 20.375C16.3229 20.5833 16.3438 20.8125 16.2812 21.0625C16.2396 21.2917 16.1354 21.5312 15.9688 21.7812C15.8229 22.0312 15.6771 22.25 15.5312 22.4375C15.3438 22.3958 15.1667 22.4479 15 22.5938C14.8333 22.7188 14.6771 22.8646 14.5312 23.0312C13.9271 22.9479 13.3333 22.9375 12.75 23C12.1667 23.0625 11.625 23.1146 11.125 23.1562C11.0208 23.1771 10.9792 23.2396 11 23.3438C11.0208 23.4271 11 23.4896 10.9375 23.5312C10.2917 23.3229 9.625 23.2396 8.9375 23.2812C8.27083 23.3229 7.58333 23.4271 6.875 23.5938C6.1875 23.7396 5.47917 23.8958 4.75 24.0625C4.02083 24.25 3.28125 24.3542 2.53125 24.375ZM24.9062 18.3125C24.7188 18.3542 24.5833 18.4688 24.5 18.6562C24.4167 18.8229 24.3333 19 24.25 19.1875C24.1875 19.375 24.1146 19.5521 24.0312 19.7188C23.9688 19.8646 23.8646 19.9375 23.7188 19.9375C23.6979 20.1042 23.6354 20.25 23.5312 20.375C23.4479 20.5 23.3646 20.6354 23.2812 20.7812C23.1979 20.9062 23.1354 21.0521 23.0938 21.2188C23.0521 21.3646 23.0729 21.5417 23.1562 21.75C22.9896 21.875 22.8854 22.0521 22.8438 22.2812C22.8021 22.5104 22.75 22.7292 22.6875 22.9375C22.6458 23.1458 22.5625 23.3229 22.4375 23.4688C22.3125 23.6146 22.0833 23.6771 21.75 23.6562C21.6875 23.7396 21.6771 23.7917 21.7188 23.8125C21.7604 23.8333 21.7917 23.9062 21.8125 24.0312C21.5833 23.9896 21.4062 24 21.2812 24.0625C21.1771 24.1458 21.0417 24.1979 20.875 24.2188C20.4792 24.0938 20.1458 23.875 19.875 23.5625C19.625 23.25 19.3958 22.9062 19.1875 22.5312C19 22.1354 18.8229 21.7396 18.6562 21.3438C18.5104 20.9479 18.3646 20.6042 18.2188 20.3125C18.2812 20.0833 18.2917 19.8646 18.25 19.6562C18.2083 19.4271 18.1354 19.2396 18.0312 19.0938C19.0521 16.9271 20.1667 14.6146 21.375 12.1562C22.5833 9.69792 23.7292 7.27083 24.8125 4.875C25.2917 5.0625 25.7604 5.28125 26.2188 5.53125C26.6979 5.76042 27.125 6.03125 27.5 6.34375C27.8958 6.65625 28.2292 7.02083 28.5 7.4375C28.7708 7.83333 28.9479 8.28125 29.0312 8.78125C28.9896 8.90625 28.9375 8.95833 28.875 8.9375C28.8333 8.89583 28.7917 8.90625 28.75 8.96875C28.8333 9.07292 28.875 9.14583 28.875 9.1875C28.8958 9.22917 28.8958 9.27083 28.875 9.3125C28.875 9.35417 28.875 9.41667 28.875 9.5C28.875 9.5625 28.9062 9.65625 28.9688 9.78125C28.8854 9.76042 28.8229 9.77083 28.7812 9.8125C28.7604 9.85417 28.6979 9.85417 28.5938 9.8125C28.6771 10.0417 28.6979 10.2292 28.6562 10.375C28.6354 10.5208 28.5938 10.6562 28.5312 10.7812C28.4688 10.8854 28.4167 11.0104 28.375 11.1562C28.3333 11.2812 28.3438 11.4479 28.4062 11.6562C28.3438 11.6562 28.2917 11.6771 28.25 11.7188C28.2292 11.7396 28.2083 11.7708 28.1875 11.8125C28.1667 11.8333 28.1354 11.8646 28.0938 11.9062C28.0729 11.9271 28.0312 11.9271 27.9688 11.9062C28.0312 12.3646 28.0521 12.8229 28.0312 13.2812C28.0104 13.7396 27.9896 14.2083 27.9688 14.6875C27.9688 15.1458 27.9792 15.6354 28 16.1562C28.0208 16.6562 28.0938 17.1771 28.2188 17.7188C28.9688 17.2812 29.5625 16.7188 30 16.0312C30.4583 15.3438 30.8229 14.5729 31.0938 13.7188C31.3854 12.8646 31.6042 11.9479 31.75 10.9688C31.8958 9.98958 32.0521 8.98958 32.2188 7.96875C32.4062 7.78125 32.5521 7.55208 32.6562 7.28125C32.7604 7.01042 32.8542 6.72917 32.9375 6.4375C33.0208 6.125 33.1042 5.82292 33.1875 5.53125C33.2708 5.21875 33.375 4.9375 33.5 4.6875C33.8125 4.72917 34.0729 4.83333 34.2812 5C34.5104 5.14583 34.7188 5.3125 34.9062 5.5C35.0938 5.66667 35.2917 5.83333 35.5 6C35.7083 6.14583 35.9688 6.23958 36.2812 6.28125C36.5312 6.63542 36.7604 6.97917 36.9688 7.3125C37.1771 7.64583 37.3125 8 37.375 8.375C37.2708 8.54167 37.1875 8.72917 37.125 8.9375C37.0833 9.14583 37.0312 9.35417 36.9688 9.5625C36.9062 9.77083 36.8229 9.96875 36.7188 10.1562C36.6146 10.3229 36.4688 10.4688 36.2812 10.5938C36.2188 11.1354 36.1354 11.6354 36.0312 12.0938C35.9479 12.5312 35.8542 12.9688 35.75 13.4062C35.6667 13.8438 35.5938 14.3021 35.5312 14.7812C35.4688 15.2396 35.4479 15.75 35.4688 16.3125C35.3021 16.7917 35.125 17.3021 34.9375 17.8438C34.75 18.3854 34.6042 18.875 34.5 19.3125C34.1667 19.5833 33.9062 19.9062 33.7188 20.2812C33.5312 20.6562 33.3333 21.0312 33.125 21.4062C33.0417 21.4896 32.9896 21.5104 32.9688 21.4688C32.9479 21.4271 32.875 21.3958 32.75 21.375C32.7708 21.4583 32.7708 21.5208 32.75 21.5625C32.7292 21.6042 32.6979 21.6458 32.6562 21.6875C32.6354 21.7083 32.6146 21.75 32.5938 21.8125C32.5938 21.875 32.6146 21.9583 32.6562 22.0625C32.3646 22.1875 32.1042 22.3646 31.875 22.5938C31.6458 22.8229 31.3958 23.0312 31.125 23.2188C30.875 23.4062 30.5625 23.5312 30.1875 23.5938C29.8333 23.6562 29.3646 23.5833 28.7812 23.375C27.9271 22.75 27.1667 22.0312 26.5 21.2188C25.8542 20.4062 25.3229 19.4375 24.9062 18.3125ZM46.9688 18.5C46.9479 18.7917 46.875 19.0729 46.75 19.3438C46.6458 19.5938 46.5104 19.8438 46.3438 20.0938C46.1771 20.3229 45.9896 20.5521 45.7812 20.7812C45.5938 20.9896 45.4062 21.1771 45.2188 21.3438C45.2812 21.6146 45.2812 21.8229 45.2188 21.9688C45.1771 22.0938 45.1667 22.2917 45.1875 22.5625C44.875 23.3958 44.3958 23.9479 43.75 24.2188C43.125 24.5104 42.5312 24.4583 41.9688 24.0625C41.7396 23.8958 41.5417 23.6875 41.375 23.4375C41.2292 23.1667 41.0208 23 40.75 22.9375C40.8125 22.5833 40.7812 22.2292 40.6562 21.875C40.5312 21.5208 40.3958 21.3333 40.25 21.3125C40.1875 20.875 40.0938 20.4062 39.9688 19.9062C39.8438 19.4062 39.7292 18.9062 39.625 18.4062C39.5208 17.8854 39.4271 17.3854 39.3438 16.9062C39.2812 16.4062 39.2604 15.9479 39.2812 15.5312C39.3021 15.3229 39.2604 15.1354 39.1562 14.9688C39.0729 14.8021 39.0104 14.6042 38.9688 14.375C38.8854 13.8958 38.8542 13.3958 38.875 12.875C38.9167 12.3333 38.9375 11.8229 38.9375 11.3438C38.9375 10.8854 38.9062 10.3958 38.8438 9.875C38.8021 9.33333 38.7604 8.82292 38.7188 8.34375C38.6771 7.84375 38.6562 7.39583 38.6562 7C38.6562 6.58333 38.7083 6.26042 38.8125 6.03125C38.9375 5.78125 39.1042 5.58333 39.3125 5.4375C39.5417 5.27083 39.75 5.09375 39.9375 4.90625C40.3958 4.94792 40.7604 5.13542 41.0312 5.46875C41.3021 5.80208 41.4062 6.11458 41.3438 6.40625C41.7812 6.67708 42.125 7.03125 42.375 7.46875C42.6458 7.88542 42.8542 8.36458 43 8.90625C43.1667 9.42708 43.2812 9.98958 43.3438 10.5938C43.4062 11.1771 43.4583 11.7604 43.5 12.3438C43.5417 12.9062 43.5833 13.4479 43.625 13.9688C43.6667 14.4896 43.75 14.9375 43.875 15.3125C44.6458 14.2083 45.2917 13.2292 45.8125 12.375C46.3333 11.5 46.8646 10.6667 47.4062 9.875C47.9479 9.08333 48.5521 8.28125 49.2188 7.46875C49.8854 6.65625 50.75 5.73958 51.8125 4.71875C52.0208 4.73958 52.1875 4.78125 52.3125 4.84375C52.4583 4.90625 52.5833 4.95833 52.6875 5C52.7917 5.04167 52.9167 5.08333 53.0625 5.125C53.2083 5.14583 53.4062 5.13542 53.6562 5.09375C53.7396 5.30208 53.8021 5.45833 53.8438 5.5625C53.8854 5.64583 53.9167 5.73958 53.9375 5.84375C53.9792 5.92708 54.0208 6.04167 54.0625 6.1875C54.125 6.33333 54.2188 6.54167 54.3438 6.8125C54.4062 6.875 54.4271 6.95833 54.4062 7.0625C54.3854 7.16667 54.3646 7.27083 54.3438 7.375C54.3438 7.45833 54.3438 7.52083 54.3438 7.5625C54.3438 7.60417 54.3958 7.60417 54.5 7.5625C54.4375 7.85417 54.3229 8.125 54.1562 8.375C54.0104 8.60417 53.9479 8.88542 53.9688 9.21875C53.4896 9.84375 52.9583 10.4896 52.375 11.1562C51.8125 11.8229 51.2396 12.5104 50.6562 13.2188C50.0938 13.9271 49.5521 14.6771 49.0312 15.4688C48.5104 16.2396 48.0625 17.0521 47.6875 17.9062C47.5833 17.9062 47.5 17.9375 47.4375 18C47.3958 18.0625 47.3542 18.1354 47.3125 18.2188C47.2708 18.2812 47.2188 18.3438 47.1562 18.4062C47.1146 18.4688 47.0521 18.5 46.9688 18.5ZM69.5312 6.40625C69.5521 6.55208 69.5521 6.66667 69.5312 6.75C69.5312 6.8125 69.5208 6.875 69.5 6.9375C69.5 7 69.5 7.07292 69.5 7.15625C69.5 7.21875 69.5208 7.32292 69.5625 7.46875C69.125 8.17708 68.6146 8.66667 68.0312 8.9375C67.4688 9.1875 66.8542 9.375 66.1875 9.5C65.5208 9.60417 64.8333 9.71875 64.125 9.84375C63.4375 9.96875 62.75 10.2396 62.0625 10.6562C61.7917 10.5521 61.5417 10.5521 61.3125 10.6562C61.1042 10.7604 60.7917 10.7917 60.375 10.75C60.25 10.875 60.0938 10.9688 59.9062 11.0312C59.7188 11.0729 59.5312 11.125 59.3438 11.1875C59.4271 11.375 59.4583 11.5729 59.4375 11.7812C59.4375 11.9688 59.4688 12.125 59.5312 12.25C60.2604 12.3125 61.0625 12.3021 61.9375 12.2188C62.8333 12.1354 63.7083 12.0833 64.5625 12.0625C64.5833 12.1667 64.5729 12.2396 64.5312 12.2812C64.4896 12.3021 64.4792 12.3542 64.5 12.4375C64.6458 12.5417 64.7917 12.6771 64.9375 12.8438C65.0833 12.9896 65.2292 13.1354 65.375 13.2812C65.5208 13.4271 65.6667 13.5521 65.8125 13.6562C65.9792 13.7396 66.1667 13.7708 66.375 13.75C66.4583 13.9167 66.5104 14.1042 66.5312 14.3125C66.5729 14.5 66.5521 14.6979 66.4688 14.9062C66.1354 15.1354 65.8021 15.375 65.4688 15.625C65.1354 15.8542 64.7812 16.0625 64.4062 16.25C64.0521 16.4375 63.6667 16.5938 63.25 16.7188C62.8542 16.8229 62.4062 16.8646 61.9062 16.8438C61.8021 16.8438 61.7188 16.8438 61.6562 16.8438C61.6146 16.8438 61.5521 16.8125 61.4688 16.75C61.3021 16.8542 61.0625 16.8854 60.75 16.8438C60.4583 16.8021 60.2292 16.8333 60.0625 16.9375C59.8333 16.8333 59.5521 16.7917 59.2188 16.8125C58.9062 16.8125 58.625 16.7708 58.375 16.6875C58.0417 17.125 57.7396 17.5938 57.4688 18.0938C57.1979 18.5938 56.9583 19.125 56.75 19.6875C57.4583 19.7917 58.0417 19.8333 58.5 19.8125C58.9792 19.7917 59.4271 19.7604 59.8438 19.7188C60.2604 19.6562 60.6875 19.6042 61.125 19.5625C61.5625 19.5 62.1146 19.4792 62.7812 19.5C63.1979 19.2708 63.6875 19.125 64.25 19.0625C64.8333 18.9792 65.3646 18.8542 65.8438 18.6875C66.0104 18.75 66.1562 18.8646 66.2812 19.0312C66.4062 19.1771 66.5208 19.3229 66.625 19.4688C66.75 19.5938 66.875 19.7083 67 19.8125C67.125 19.9167 67.2812 19.9583 67.4688 19.9375C67.5521 20.0208 67.6042 20.125 67.625 20.25C67.6667 20.3542 67.6979 20.4583 67.7188 20.5625C67.7396 20.6667 67.7708 20.7604 67.8125 20.8438C67.875 20.9062 67.9688 20.9271 68.0938 20.9062C67.7812 21.5938 67.4167 22.125 67 22.5C66.6042 22.8542 66.1458 23.125 65.625 23.3125C65.1042 23.5 64.5208 23.6458 63.875 23.75C63.25 23.8542 62.5521 23.9792 61.7812 24.125C61.5938 24.1667 61.4375 24.1562 61.3125 24.0938C61.1875 24.0521 61.0417 24.0312 60.875 24.0312C60.3958 24.1354 59.8229 24.2292 59.1562 24.3125C58.4896 24.3958 57.8125 24.4271 57.125 24.4062C56.4375 24.3854 55.7812 24.2917 55.1562 24.125C54.5312 23.9792 54.0208 23.7083 53.625 23.3125C53.4583 23.1667 53.3438 23 53.2812 22.8125C53.2396 22.6042 53.1042 22.4479 52.875 22.3438C52.8542 22.0729 52.8125 21.7708 52.75 21.4375C52.6875 21.1042 52.625 20.7604 52.5625 20.4062C52.5 20.0312 52.4479 19.6667 52.4062 19.3125C52.3854 18.9583 52.4062 18.6354 52.4688 18.3438C52.5312 18.0312 52.6562 17.75 52.8438 17.5C53.0521 17.25 53.125 16.9792 53.0625 16.6875C53.1667 16.6667 53.2292 16.6146 53.25 16.5312C53.2708 16.4271 53.3542 16.3854 53.5 16.4062C53.625 16.0312 53.7604 15.6771 53.9062 15.3438C54.0521 15.0104 54.1979 14.6875 54.3438 14.375C54.5104 14.0625 54.6667 13.75 54.8125 13.4375C54.9792 13.1042 55.1354 12.7396 55.2812 12.3438C54.9896 12.0729 54.7708 11.7812 54.625 11.4688C54.5 11.1354 54.4062 10.8125 54.3438 10.5C54.2812 10.1667 54.2292 9.83333 54.1875 9.5C54.1458 9.14583 54.0729 8.79167 53.9688 8.4375C54.1771 8.125 54.4271 7.875 54.7188 7.6875C55.0312 7.47917 55.3646 7.3125 55.7188 7.1875C56.0729 7.0625 56.4583 6.95833 56.875 6.875C57.2917 6.79167 57.7292 6.69792 58.1875 6.59375C59.0208 6.32292 59.7604 6.11458 60.4062 5.96875C61.0729 5.82292 61.7188 5.70833 62.3438 5.625C62.9896 5.52083 63.6562 5.42708 64.3438 5.34375C65.0312 5.26042 65.8125 5.13542 66.6875 4.96875C66.875 5.15625 67.0521 5.25 67.2188 5.25C67.3021 5.0625 67.3958 5.01042 67.5 5.09375C67.625 5.15625 67.6771 5.09375 67.6562 4.90625C67.8646 5.26042 68.125 5.5625 68.4375 5.8125C68.7708 6.04167 69.1354 6.23958 69.5312 6.40625ZM69.2812 9.9375C69.4271 9.5 69.6562 9.125 69.9688 8.8125C70.3021 8.5 70.6562 8.23958 71.0312 8.03125C71.4271 7.80208 71.8333 7.61458 72.25 7.46875C72.6667 7.32292 73.0625 7.19792 73.4375 7.09375C74.2708 6.73958 75.1562 6.40625 76.0938 6.09375C77.0521 5.76042 78.0208 5.46875 79 5.21875C80 4.96875 81.0208 4.8125 82.0625 4.75C83.1042 4.66667 84.1979 4.79167 85.3438 5.125C85.4062 5.33333 85.5 5.53125 85.625 5.71875C85.75 5.90625 85.875 6.09375 86 6.28125C86.1458 6.46875 86.2708 6.65625 86.375 6.84375C86.4792 7.01042 86.5417 7.1875 86.5625 7.375C86.7708 7.5625 86.9375 7.77083 87.0625 8C87.1875 8.20833 87.2083 8.48958 87.125 8.84375C86.9167 9.01042 86.7083 9.16667 86.5 9.3125C86.3125 9.4375 86.1042 9.55208 85.875 9.65625C85.1042 9.46875 84.3229 9.40625 83.5312 9.46875C82.7396 9.53125 82.0312 9.58333 81.4062 9.625C81.2188 9.4375 80.9896 9.34375 80.7188 9.34375C80.4688 9.34375 80.1979 9.38542 79.9062 9.46875C79.6354 9.55208 79.3542 9.63542 79.0625 9.71875C78.7917 9.80208 78.5312 9.82292 78.2812 9.78125C78.0729 9.94792 77.8125 10.0625 77.5 10.125C77.2083 10.1667 76.8854 10.2083 76.5312 10.25C76.5104 10.3542 76.5312 10.4271 76.5938 10.4688C76.6562 10.4896 76.6667 10.5521 76.625 10.6562C76.75 10.8021 76.9062 10.9062 77.0938 10.9688C77.3021 11.0312 77.5104 11.0938 77.7188 11.1562C77.9479 11.2188 78.1458 11.3021 78.3125 11.4062C78.4792 11.4896 78.5938 11.6354 78.6562 11.8438C78.9688 11.8438 79.2396 11.9167 79.4688 12.0625C79.6979 12.2083 79.8854 12.3854 80.0312 12.5938C80.1771 12.8021 80.2812 13.0312 80.3438 13.2812C80.4271 13.5104 80.4688 13.7188 80.4688 13.9062C80.5312 14.0729 80.6042 14.1458 80.6875 14.125C80.7708 14.1042 80.8646 14.1458 80.9688 14.25C81.0312 14.5208 81.1875 14.8021 81.4375 15.0938C81.6875 15.3646 81.8854 15.6667 82.0312 16C82.0729 16.5208 82.1042 16.9896 82.125 17.4062C82.1458 17.8021 82.0729 18.2083 81.9062 18.625C81.5938 19.3958 81.1562 20.0833 80.5938 20.6875C80.0521 21.2917 79.4271 21.8333 78.7188 22.3125C78.0312 22.7708 77.2917 23.1667 76.5 23.5C75.7083 23.8333 74.9375 24.1146 74.1875 24.3438C74.1042 24.3229 74.0208 24.3229 73.9375 24.3438C73.8542 24.3646 73.8333 24.3125 73.875 24.1875C73.7083 24.3333 73.5208 24.4271 73.3125 24.4688C73.125 24.5104 72.9167 24.5208 72.6875 24.5C72.4583 24.5 72.2188 24.4896 71.9688 24.4688C71.7396 24.4479 71.5208 24.4583 71.3125 24.5C71.1667 24.3542 71.0312 24.2083 70.9062 24.0625C70.8021 23.9375 70.7188 23.7708 70.6562 23.5625C70.5521 23.5625 70.5 23.5104 70.5 23.4062C70.5208 23.3021 70.4896 23.25 70.4062 23.25C70.5312 23.0417 70.5833 22.9271 70.5625 22.9062C70.5625 22.8646 70.5312 22.8333 70.4688 22.8125C70.4271 22.7917 70.3854 22.7708 70.3438 22.75C70.3021 22.7083 70.2917 22.6562 70.3125 22.5938C70.3958 22.4271 70.4271 22.2396 70.4062 22.0312C70.3854 21.8021 70.3646 21.5729 70.3438 21.3438C70.3229 21.1146 70.3333 20.8958 70.375 20.6875C70.4375 20.4792 70.5938 20.3125 70.8438 20.1875C71.5521 20.2708 72.2188 20.25 72.8438 20.125C73.4896 19.9792 74.0938 19.7812 74.6562 19.5312C75.2188 19.2812 75.75 19.0104 76.25 18.7188C76.7708 18.4271 77.2812 18.1667 77.7812 17.9375C77.8438 17.75 77.9271 17.5938 78.0312 17.4688C78.1562 17.3438 78.2812 17.2292 78.4062 17.125C78.5312 17.0208 78.6458 16.9062 78.75 16.7812C78.8542 16.6562 78.9271 16.5 78.9688 16.3125C78.9896 16.1667 78.9479 16.0833 78.8438 16.0625C78.7604 16.0208 78.7188 15.9375 78.7188 15.8125L78.375 15.7188C77.9792 15.4896 77.5312 15.3021 77.0312 15.1562C76.5312 14.9896 76.1042 14.8125 75.75 14.625C75.5208 14.75 75.3021 14.7812 75.0938 14.7188C74.9062 14.6562 74.6562 14.5938 74.3438 14.5312C73.6354 14.4896 72.9479 14.4167 72.2812 14.3125C71.6354 14.2083 71.0104 14.0208 70.4062 13.75C70.3646 13.6458 70.3125 13.5521 70.25 13.4688C70.1875 13.3854 70.0729 13.3646 69.9062 13.4062C69.7812 13.2396 69.6562 13.0833 69.5312 12.9375C69.4062 12.7708 69.2917 12.5938 69.1875 12.4062C69.2292 12.1562 69.2604 11.9479 69.2812 11.7812C69.3021 11.5938 69.2396 11.4167 69.0938 11.25C69.1771 10.9792 69.2396 10.7604 69.2812 10.5938C69.3229 10.4271 69.3229 10.2083 69.2812 9.9375ZM101.406 8.96875C100.885 8.96875 100.323 9.01042 99.7188 9.09375C99.1146 9.15625 98.5208 9.22917 97.9375 9.3125C97.5208 9.375 97.1146 9.42708 96.7188 9.46875C96.3438 9.51042 96 9.54167 95.6875 9.5625C95.5417 10.0208 95.3958 10.4271 95.25 10.7812C95.1042 11.1354 94.9479 11.4792 94.7812 11.8125C94.6146 12.1667 94.4583 12.5312 94.3125 12.9062C94.1875 13.2604 94.0625 13.6458 93.9375 14.0625C93.7292 14.3958 93.5521 14.7083 93.4062 15C93.2812 15.2708 93.1771 15.5833 93.0938 15.9375C92.8438 16.25 92.6562 16.5833 92.5312 16.9375C92.4062 17.2708 92.3125 17.5625 92.25 17.8125L92.125 18.1875C92 18.3125 91.9271 18.4167 91.9062 18.5C91.8854 18.5625 91.8333 18.625 91.75 18.6875C91.7292 18.9167 91.6562 19.1458 91.5312 19.375C91.4896 19.4792 91.4583 19.5833 91.4375 19.6875C91.4167 19.7708 91.4062 19.8333 91.4062 19.875C91.4062 20.0833 91.3542 20.2188 91.25 20.2812C91.2708 20.3854 91.2708 20.5 91.25 20.625C91.2292 20.7292 91.2083 20.8333 91.1875 20.9375C91.125 21.1875 91.1042 21.3854 91.125 21.5312C91.1875 21.6146 91.2396 21.6875 91.2812 21.75C91.3438 21.8125 91.3854 21.8958 91.4062 22C91.5312 22.0833 91.625 22.1354 91.6875 22.1562C91.7708 22.2188 91.8958 22.2917 92.0625 22.375L92.3438 22.6875C92.4479 23.2917 92.3542 23.7708 92.0625 24.125C91.75 24.5208 91.2188 24.7188 90.4688 24.7188H90.0938C89.9896 24.6146 89.9271 24.5312 89.9062 24.4688C89.7396 24.4062 89.6042 24.3542 89.5 24.3125C89.3958 24.2708 89.3021 24.1875 89.2188 24.0625C88.9479 23.9375 88.7292 23.8333 88.5625 23.75L88.2812 23.5938C88.2812 23.3646 88.2812 23.2396 88.2812 23.2188C88.1354 23.0312 88.0208 22.8229 87.9375 22.5938C87.875 22.3646 87.8229 22.1354 87.7812 21.9062C87.7396 21.7188 87.6875 21.5417 87.625 21.375C87.5833 21.2083 87.5208 21.0625 87.4375 20.9375C87.3958 19.7292 87.5104 18.7083 87.7812 17.875C88.0521 17.0417 88.3333 16.2396 88.625 15.4688C88.7917 15.0521 88.9583 14.6354 89.125 14.2188C89.2917 13.7812 89.4375 13.3333 89.5625 12.875L89.8438 12.5625C89.9896 12.2292 90.1042 11.9583 90.1875 11.75C90.2917 11.5208 90.3958 11.2917 90.5 11.0625C90.5625 10.9167 90.6146 10.7812 90.6562 10.6562C90.7188 10.5104 90.7708 10.3854 90.8125 10.2812C90.6875 10.2812 90.5729 10.2917 90.4688 10.3125C90.3646 10.3125 90.2604 10.3229 90.1562 10.3438C90.0312 10.3646 89.9167 10.3854 89.8125 10.4062C89.7083 10.4062 89.6042 10.4062 89.5 10.4062C89.3542 10.4062 89.25 10.3958 89.1875 10.375C88.9583 10.4792 88.7083 10.5312 88.4375 10.5312H88.125C88.0625 10.5312 88 10.5312 87.9375 10.5312C87.8958 10.5104 87.8542 10.5 87.8125 10.5C87.6042 10.5 87.4375 10.5312 87.3125 10.5938C87.0625 10.5938 86.8229 10.5938 86.5938 10.5938H86.2812C86.2396 10.5938 86.1875 10.6042 86.125 10.625C86.0625 10.625 86.0104 10.625 85.9688 10.625C85.8229 10.625 85.6667 10.6146 85.5 10.5938C85.3333 10.5521 85.1562 10.4792 84.9688 10.375C84.7188 10.0417 84.5521 9.86458 84.4688 9.84375L84.1875 9.46875C84.1667 9.34375 84.1354 9.22917 84.0938 9.125C84.0521 9 84.0104 8.86458 83.9688 8.71875C83.8854 8.51042 83.8021 8.29167 83.7188 8.0625C83.6562 7.8125 83.625 7.52083 83.625 7.1875C83.6458 7.02083 83.6875 6.89583 83.75 6.8125C83.8125 6.72917 83.8646 6.65625 83.9062 6.59375L84 6.125L84.4062 6.15625H85.2812C85.9479 6.15625 86.625 6.13542 87.3125 6.09375C88 6.03125 88.7083 5.96875 89.4375 5.90625C89.8542 5.86458 90.2708 5.82292 90.6875 5.78125C91.125 5.73958 91.5729 5.69792 92.0312 5.65625C92.1146 5.46875 92.1979 5.29167 92.2812 5.125L92.5938 4.96875C92.9688 4.94792 93.2292 5 93.375 5.125C93.5417 5.22917 93.6771 5.33333 93.7812 5.4375C94.2396 5.39583 94.6979 5.35417 95.1562 5.3125C95.6354 5.25 96.1146 5.17708 96.5938 5.09375C97.3021 4.98958 98.0104 4.89583 98.7188 4.8125C99.4479 4.72917 100.146 4.6875 100.812 4.6875C101.104 4.6875 101.385 4.69792 101.656 4.71875C101.927 4.73958 102.177 4.77083 102.406 4.8125L102.719 5.03125C102.781 5.15625 102.865 5.27083 102.969 5.375C103.094 5.47917 103.219 5.58333 103.344 5.6875C103.594 5.91667 103.844 6.1875 104.094 6.5C104.344 6.8125 104.438 7.27083 104.375 7.875C104.208 8.125 104.083 8.27083 104 8.3125L103.719 8.6875L103.406 8.65625C103.281 8.65625 103.167 8.67708 103.062 8.71875C102.958 8.73958 102.854 8.77083 102.75 8.8125C102.667 8.85417 102.583 8.89583 102.5 8.9375C102.417 8.95833 102.323 8.97917 102.219 9C102.031 9 101.875 9 101.75 9C101.646 8.97917 101.531 8.96875 101.406 8.96875ZM111.281 22.9375C111.219 22.9583 111.177 22.9375 111.156 22.875C111.135 22.8125 111.125 22.75 111.125 22.6875C111.146 22.625 111.177 22.5729 111.219 22.5312C111.281 22.4896 111.354 22.4896 111.438 22.5312C111.167 22.1979 110.99 21.8958 110.906 21.625C110.844 21.3542 110.708 21.0208 110.5 20.625C110.562 20.5625 110.604 20.4792 110.625 20.375C110.646 20.25 110.677 20.1354 110.719 20.0312C110.74 19.9271 110.771 19.8542 110.812 19.8125C110.875 19.75 110.948 19.7604 111.031 19.8438C110.99 19.6146 110.99 19.4271 111.031 19.2812C111.073 19.1354 111.115 19 111.156 18.875C111.219 18.75 111.26 18.625 111.281 18.5C111.302 18.375 111.271 18.2292 111.188 18.0625C111.583 17.5208 111.844 16.9375 111.969 16.3125C112.094 15.6667 112.167 15.0833 112.188 14.5625C112.375 14.375 112.531 14.125 112.656 13.8125C112.802 13.5 112.906 13.1771 112.969 12.8438C113.031 12.5104 113.062 12.1875 113.062 11.875C113.062 11.5417 113.021 11.2812 112.938 11.0938C112.958 11.0104 113 10.9688 113.062 10.9688C113.146 10.9479 113.24 10.9479 113.344 10.9688C113.49 10.1354 113.583 9.20833 113.625 8.1875C113.688 7.16667 113.792 6.1875 113.938 5.25C114.104 4.29167 114.365 3.45833 114.719 2.75C115.073 2.02083 115.635 1.55208 116.406 1.34375C116.552 1.86458 116.74 2.32292 116.969 2.71875C117.219 3.11458 117.479 3.5 117.75 3.875C118.042 4.25 118.333 4.625 118.625 5C118.917 5.375 119.188 5.79167 119.438 6.25C119.417 6.72917 119.365 7.28125 119.281 7.90625C119.219 8.53125 119.125 9.16667 119 9.8125C118.896 10.4583 118.781 11.0833 118.656 11.6875C118.552 12.2917 118.448 12.8021 118.344 13.2188C118.365 13.3229 118.438 13.3958 118.562 13.4375C118.688 13.4583 118.708 13.5729 118.625 13.7812C119.229 13.6354 119.854 13.5 120.5 13.375C121.167 13.2292 121.812 13.0938 122.438 12.9688C123.083 12.8229 123.708 12.6562 124.312 12.4688C124.938 12.2812 125.521 12.0521 126.062 11.7812C126.188 10.7812 126.344 9.79167 126.531 8.8125C126.719 7.83333 126.74 6.84375 126.594 5.84375C126.719 5.73958 126.823 5.61458 126.906 5.46875C126.99 5.32292 127.115 5.22917 127.281 5.1875C127.156 4.70833 127.104 4.20833 127.125 3.6875C127.146 3.14583 127.229 2.64583 127.375 2.1875C127.542 1.72917 127.781 1.33333 128.094 1C128.406 0.645833 128.792 0.416667 129.25 0.3125C129.521 0.708333 129.76 1.13542 129.969 1.59375C130.177 2.05208 130.385 2.52083 130.594 3C130.802 3.45833 131.021 3.89583 131.25 4.3125C131.5 4.72917 131.812 5.08333 132.188 5.375C132.25 6.10417 132.302 6.85417 132.344 7.625C132.385 8.375 132.417 9.15625 132.438 9.96875C132.25 10.9062 132.031 11.8229 131.781 12.7188C131.552 13.5938 131.385 14.5312 131.281 15.5312C131.115 15.7188 130.979 15.9479 130.875 16.2188C130.771 16.4688 130.667 16.7292 130.562 17C130.479 17.25 130.375 17.5 130.25 17.75C130.125 18 129.969 18.2083 129.781 18.375C129.865 18.6667 129.875 18.9479 129.812 19.2188C129.771 19.4688 129.844 19.7708 130.031 20.125C130.073 20.7708 129.99 21.3125 129.781 21.75C129.594 22.1667 129.323 22.5312 128.969 22.8438C128.635 23.1354 128.24 23.375 127.781 23.5625C127.344 23.7292 126.906 23.8854 126.469 24.0312C126.26 23.9062 126.062 23.7812 125.875 23.6562C125.708 23.5104 125.5 23.4062 125.25 23.3438L125.406 23.0625C124.99 22.6458 124.625 22.2083 124.312 21.75C124.021 21.2708 123.885 20.7292 123.906 20.125C123.906 20.1042 123.927 19.9688 123.969 19.7188C124.01 19.4479 124.052 19.1667 124.094 18.875C124.156 18.5833 124.208 18.3125 124.25 18.0625C124.312 17.7917 124.344 17.6458 124.344 17.625C123.76 17.6875 123.156 17.8229 122.531 18.0312C121.906 18.2396 121.292 18.4792 120.688 18.75C120.104 19 119.552 19.2708 119.031 19.5625C118.531 19.8333 118.125 20.0625 117.812 20.25C117.812 20.3125 117.76 20.4896 117.656 20.7812C117.552 21.0729 117.427 21.3854 117.281 21.7188C117.135 22.0312 116.969 22.3125 116.781 22.5625C116.615 22.8125 116.438 22.9271 116.25 22.9062C116.292 23.0104 116.333 23.0938 116.375 23.1562C116.417 23.1979 116.417 23.2917 116.375 23.4375C116.021 23.5417 115.698 23.6771 115.406 23.8438C115.135 24.0104 114.854 24.1458 114.562 24.25C114.271 24.375 113.948 24.4271 113.594 24.4062C113.26 24.4062 112.854 24.2812 112.375 24.0312C112.375 23.8854 112.312 23.7604 112.188 23.6562C112.062 23.5312 111.927 23.4271 111.781 23.3438C111.656 23.2604 111.542 23.1875 111.438 23.125C111.333 23.0625 111.281 23 111.281 22.9375ZM150.5 6.40625C150.521 6.55208 150.521 6.66667 150.5 6.75C150.5 6.8125 150.49 6.875 150.469 6.9375C150.469 7 150.469 7.07292 150.469 7.15625C150.469 7.21875 150.49 7.32292 150.531 7.46875C150.094 8.17708 149.583 8.66667 149 8.9375C148.438 9.1875 147.823 9.375 147.156 9.5C146.49 9.60417 145.802 9.71875 145.094 9.84375C144.406 9.96875 143.719 10.2396 143.031 10.6562C142.76 10.5521 142.51 10.5521 142.281 10.6562C142.073 10.7604 141.76 10.7917 141.344 10.75C141.219 10.875 141.062 10.9688 140.875 11.0312C140.688 11.0729 140.5 11.125 140.312 11.1875C140.396 11.375 140.427 11.5729 140.406 11.7812C140.406 11.9688 140.438 12.125 140.5 12.25C141.229 12.3125 142.031 12.3021 142.906 12.2188C143.802 12.1354 144.677 12.0833 145.531 12.0625C145.552 12.1667 145.542 12.2396 145.5 12.2812C145.458 12.3021 145.448 12.3542 145.469 12.4375C145.615 12.5417 145.76 12.6771 145.906 12.8438C146.052 12.9896 146.198 13.1354 146.344 13.2812C146.49 13.4271 146.635 13.5521 146.781 13.6562C146.948 13.7396 147.135 13.7708 147.344 13.75C147.427 13.9167 147.479 14.1042 147.5 14.3125C147.542 14.5 147.521 14.6979 147.438 14.9062C147.104 15.1354 146.771 15.375 146.438 15.625C146.104 15.8542 145.75 16.0625 145.375 16.25C145.021 16.4375 144.635 16.5938 144.219 16.7188C143.823 16.8229 143.375 16.8646 142.875 16.8438C142.771 16.8438 142.688 16.8438 142.625 16.8438C142.583 16.8438 142.521 16.8125 142.438 16.75C142.271 16.8542 142.031 16.8854 141.719 16.8438C141.427 16.8021 141.198 16.8333 141.031 16.9375C140.802 16.8333 140.521 16.7917 140.188 16.8125C139.875 16.8125 139.594 16.7708 139.344 16.6875C139.01 17.125 138.708 17.5938 138.438 18.0938C138.167 18.5938 137.927 19.125 137.719 19.6875C138.427 19.7917 139.01 19.8333 139.469 19.8125C139.948 19.7917 140.396 19.7604 140.812 19.7188C141.229 19.6562 141.656 19.6042 142.094 19.5625C142.531 19.5 143.083 19.4792 143.75 19.5C144.167 19.2708 144.656 19.125 145.219 19.0625C145.802 18.9792 146.333 18.8542 146.812 18.6875C146.979 18.75 147.125 18.8646 147.25 19.0312C147.375 19.1771 147.49 19.3229 147.594 19.4688C147.719 19.5938 147.844 19.7083 147.969 19.8125C148.094 19.9167 148.25 19.9583 148.438 19.9375C148.521 20.0208 148.573 20.125 148.594 20.25C148.635 20.3542 148.667 20.4583 148.688 20.5625C148.708 20.6667 148.74 20.7604 148.781 20.8438C148.844 20.9062 148.938 20.9271 149.062 20.9062C148.75 21.5938 148.385 22.125 147.969 22.5C147.573 22.8542 147.115 23.125 146.594 23.3125C146.073 23.5 145.49 23.6458 144.844 23.75C144.219 23.8542 143.521 23.9792 142.75 24.125C142.562 24.1667 142.406 24.1562 142.281 24.0938C142.156 24.0521 142.01 24.0312 141.844 24.0312C141.365 24.1354 140.792 24.2292 140.125 24.3125C139.458 24.3958 138.781 24.4271 138.094 24.4062C137.406 24.3854 136.75 24.2917 136.125 24.125C135.5 23.9792 134.99 23.7083 134.594 23.3125C134.427 23.1667 134.312 23 134.25 22.8125C134.208 22.6042 134.073 22.4479 133.844 22.3438C133.823 22.0729 133.781 21.7708 133.719 21.4375C133.656 21.1042 133.594 20.7604 133.531 20.4062C133.469 20.0312 133.417 19.6667 133.375 19.3125C133.354 18.9583 133.375 18.6354 133.438 18.3438C133.5 18.0312 133.625 17.75 133.812 17.5C134.021 17.25 134.094 16.9792 134.031 16.6875C134.135 16.6667 134.198 16.6146 134.219 16.5312C134.24 16.4271 134.323 16.3854 134.469 16.4062C134.594 16.0312 134.729 15.6771 134.875 15.3438C135.021 15.0104 135.167 14.6875 135.312 14.375C135.479 14.0625 135.635 13.75 135.781 13.4375C135.948 13.1042 136.104 12.7396 136.25 12.3438C135.958 12.0729 135.74 11.7812 135.594 11.4688C135.469 11.1354 135.375 10.8125 135.312 10.5C135.25 10.1667 135.198 9.83333 135.156 9.5C135.115 9.14583 135.042 8.79167 134.938 8.4375C135.146 8.125 135.396 7.875 135.688 7.6875C136 7.47917 136.333 7.3125 136.688 7.1875C137.042 7.0625 137.427 6.95833 137.844 6.875C138.26 6.79167 138.698 6.69792 139.156 6.59375C139.99 6.32292 140.729 6.11458 141.375 5.96875C142.042 5.82292 142.688 5.70833 143.312 5.625C143.958 5.52083 144.625 5.42708 145.312 5.34375C146 5.26042 146.781 5.13542 147.656 4.96875C147.844 5.15625 148.021 5.25 148.188 5.25C148.271 5.0625 148.365 5.01042 148.469 5.09375C148.594 5.15625 148.646 5.09375 148.625 4.90625C148.833 5.26042 149.094 5.5625 149.406 5.8125C149.74 6.04167 150.104 6.23958 150.5 6.40625ZM154.469 20.75C154.24 21.5833 154.031 22.2188 153.844 22.6562C153.677 23.0729 153.417 23.5104 153.062 23.9688C152.792 23.9271 152.604 23.9583 152.5 24.0625C152.396 24.1667 152.281 24.2604 152.156 24.3438C151.969 24.3854 151.833 24.3854 151.75 24.3438C151.667 24.3021 151.594 24.25 151.531 24.1875C151.469 24.1458 151.385 24.0938 151.281 24.0312C151.198 23.9896 151.062 23.9688 150.875 23.9688C150.833 23.8021 150.781 23.6458 150.719 23.5C150.677 23.3542 150.542 23.3021 150.312 23.3438C150.354 23.1771 150.365 23.0417 150.344 22.9375C150.323 22.8125 150.292 22.7083 150.25 22.625C150.229 22.5208 150.208 22.4271 150.188 22.3438C150.167 22.2396 150.177 22.1146 150.219 21.9688C150.115 21.9688 150.031 21.8958 149.969 21.75C149.906 21.6042 149.833 21.4583 149.75 21.3125C149.812 20.9375 149.875 20.5833 149.938 20.25C150 19.9167 150.073 19.6042 150.156 19.3125C150.26 19.0208 150.344 18.7292 150.406 18.4375C150.469 18.1458 150.438 17.8438 150.312 17.5312C150.396 17.5938 150.458 17.5833 150.5 17.5C150.542 17.3958 150.573 17.2708 150.594 17.125C150.615 16.9583 150.625 16.8021 150.625 16.6562C150.625 16.4896 150.615 16.3542 150.594 16.25C150.802 15.7083 150.969 15.1562 151.094 14.5938C151.24 14.0104 151.365 13.4375 151.469 12.875C151.594 12.3125 151.719 11.7604 151.844 11.2188C151.969 10.6771 152.135 10.1771 152.344 9.71875C152.573 9.67708 152.823 9.70833 153.094 9.8125C153.385 9.89583 153.562 10.0104 153.625 10.1562C154.167 9.73958 154.646 9.23958 155.062 8.65625C155.479 8.05208 155.906 7.46875 156.344 6.90625C156.781 6.34375 157.26 5.84375 157.781 5.40625C158.323 4.96875 159 4.70833 159.812 4.625C160.229 4.9375 160.688 5.26042 161.188 5.59375C161.708 5.90625 162.135 6.32292 162.469 6.84375C162.635 6.92708 162.771 7.02083 162.875 7.125C163 7.20833 163.146 7.30208 163.312 7.40625V7.78125C163.562 8.01042 163.76 8.28125 163.906 8.59375C164.073 8.88542 164.219 9.20833 164.344 9.5625C164.469 9.89583 164.594 10.2396 164.719 10.5938C164.844 10.9271 164.99 11.25 165.156 11.5625C165.115 11.6667 165.094 11.7604 165.094 11.8438C165.094 11.9062 165.104 11.9792 165.125 12.0625C165.167 12.1458 165.198 12.2292 165.219 12.3125C165.24 12.3958 165.24 12.5104 165.219 12.6562C165.156 13.5729 164.854 14.3125 164.312 14.875C163.792 15.4375 163.156 15.9062 162.406 16.2812C161.656 16.6354 160.854 16.9375 160 17.1875C159.146 17.4375 158.375 17.7083 157.688 18C157.688 18.0833 157.719 18.125 157.781 18.125C157.865 18.125 157.896 18.1771 157.875 18.2812C158.375 18.5938 158.771 18.8438 159.062 19.0312C159.354 19.2188 159.625 19.375 159.875 19.5C160.146 19.625 160.427 19.7396 160.719 19.8438C161.031 19.9271 161.458 20.0312 162 20.1562C162.542 20.2812 162.958 20.3854 163.25 20.4688C163.562 20.5312 163.844 20.5938 164.094 20.6562C164.344 20.6979 164.594 20.7396 164.844 20.7812C165.115 20.8021 165.49 20.8333 165.969 20.875C166.156 21.0625 166.312 21.2917 166.438 21.5625C166.583 21.8125 166.677 22.0729 166.719 22.3438C166.76 22.5938 166.771 22.8438 166.75 23.0938C166.729 23.3229 166.656 23.5104 166.531 23.6562C166.552 23.7188 166.594 23.75 166.656 23.75C166.74 23.7292 166.823 23.7292 166.906 23.75C166.781 23.8333 166.677 23.9375 166.594 24.0625C166.51 24.1875 166.427 24.3125 166.344 24.4375C166.26 24.5625 166.167 24.6667 166.062 24.75C165.958 24.8542 165.812 24.9167 165.625 24.9375C164.979 25.1875 164.167 25.1979 163.188 24.9688C162.208 24.7604 160.969 24.3646 159.469 23.7812C158.719 23.4896 158.104 23.2396 157.625 23.0312C157.167 22.8021 156.76 22.5833 156.406 22.375C156.073 22.1458 155.76 21.9062 155.469 21.6562C155.198 21.4062 154.865 21.1042 154.469 20.75ZM158.938 10.0312C158.708 10.3646 158.448 10.6667 158.156 10.9375C157.885 11.2083 157.615 11.4896 157.344 11.7812C157.094 12.0521 156.865 12.3646 156.656 12.7188C156.448 13.0521 156.302 13.4479 156.219 13.9062C156.948 13.8229 157.708 13.625 158.5 13.3125C159.292 12.9792 160.042 12.6667 160.75 12.375C160.667 11.7292 160.438 11.2083 160.062 10.8125C159.708 10.4167 159.333 10.1562 158.938 10.0312ZM184.969 14.625C184.948 14.875 184.969 15.1146 185.031 15.3438C185.094 15.5729 185.167 15.8021 185.25 16.0312C185.354 16.2396 185.448 16.4583 185.531 16.6875C185.615 16.9167 185.677 17.1458 185.719 17.375C185.76 17.6667 185.76 17.9896 185.719 18.3438C185.677 18.6771 185.604 19.0104 185.5 19.3438C185.396 19.6562 185.26 19.9479 185.094 20.2188C184.927 20.4688 184.729 20.6562 184.5 20.7812C184.208 21.1562 183.854 21.4479 183.438 21.6562C183.021 21.8646 182.635 22.1146 182.281 22.4062C182.052 22.5521 181.792 22.6562 181.5 22.7188C181.229 22.7812 180.948 22.8438 180.656 22.9062C180.427 23.0312 180.156 23.1667 179.844 23.3125C179.531 23.4375 179.208 23.5625 178.875 23.6875C178.542 23.7917 178.208 23.875 177.875 23.9375C177.542 23.9792 177.25 23.9896 177 23.9688C176.375 24.1979 175.76 24.3438 175.156 24.4062C174.573 24.4896 173.885 24.4479 173.094 24.2812C172.344 24.3854 171.646 24.3542 171 24.1875C170.375 24.0208 169.812 23.7604 169.312 23.4062C168.833 23.0312 168.406 22.5938 168.031 22.0938C167.677 21.5729 167.385 21.0312 167.156 20.4688C166.99 19.2812 167.031 18.2083 167.281 17.25C167.531 16.2708 167.885 15.375 168.344 14.5625C168.823 13.7292 169.365 12.9688 169.969 12.2812C170.573 11.5729 171.156 10.8854 171.719 10.2188C171.844 10.2604 171.938 10.2604 172 10.2188C172.083 10.1562 172.156 10.0833 172.219 10C172.281 9.89583 172.344 9.80208 172.406 9.71875C172.49 9.63542 172.583 9.58333 172.688 9.5625C172.833 9.25 173.042 9.02083 173.312 8.875C173.604 8.70833 173.833 8.47917 174 8.1875C174.188 8.14583 174.344 8.08333 174.469 8C174.594 7.91667 174.708 7.82292 174.812 7.71875C174.938 7.61458 175.062 7.52083 175.188 7.4375C175.312 7.33333 175.458 7.26042 175.625 7.21875V6.875C176 6.70833 176.271 6.52083 176.438 6.3125C176.625 6.08333 176.844 5.8125 177.094 5.5C177.281 5.47917 177.427 5.46875 177.531 5.46875C177.656 5.46875 177.833 5.44792 178.062 5.40625C178.229 5.11458 178.375 4.89583 178.5 4.75C178.646 4.60417 178.854 4.44792 179.125 4.28125C179.375 4.40625 179.646 4.48958 179.938 4.53125C180.25 4.57292 180.521 4.70833 180.75 4.9375C180.771 5.14583 180.833 5.3125 180.938 5.4375C181.042 5.54167 181.156 5.64583 181.281 5.75C181.406 5.83333 181.521 5.92708 181.625 6.03125C181.75 6.13542 181.833 6.28125 181.875 6.46875C181.958 6.48958 182.01 6.47917 182.031 6.4375C182.073 6.39583 182.135 6.38542 182.219 6.40625C182.281 6.69792 182.354 6.89583 182.438 7C182.521 7.08333 182.604 7.26042 182.688 7.53125C182.583 7.73958 182.5 7.95833 182.438 8.1875C182.396 8.39583 182.271 8.55208 182.062 8.65625C182.042 8.80208 182.083 8.88542 182.188 8.90625C182.292 8.90625 182.354 8.95833 182.375 9.0625C182.396 9.25 182.365 9.38542 182.281 9.46875C182.781 10.2812 183.229 11.1458 183.625 12.0625C184.021 12.9583 184.469 13.8125 184.969 14.625ZM181.062 17.5938C181.146 17.3646 181.25 17.1771 181.375 17.0312C181.521 16.8854 181.604 16.6667 181.625 16.375C181.521 16.2083 181.458 16.0833 181.438 16C181.417 15.8958 181.406 15.7396 181.406 15.5312C180.948 14.8854 180.552 14.1979 180.219 13.4688C179.885 12.7188 179.51 12.0208 179.094 11.375C179.052 11.4583 178.979 11.5417 178.875 11.625C178.771 11.7083 178.656 11.6875 178.531 11.5625C178.49 11.7292 178.417 11.8542 178.312 11.9375C178.208 12 178.094 12.0312 177.969 12.0312C177.844 12.0104 177.708 11.9792 177.562 11.9375C177.438 11.875 177.323 11.8021 177.219 11.7188C176.615 12.1979 176.01 12.6667 175.406 13.125C174.802 13.5833 174.26 14.1146 173.781 14.7188C173.698 14.7604 173.646 14.7812 173.625 14.7812C173.604 14.7604 173.542 14.7708 173.438 14.8125C173.271 15.2083 173.062 15.5729 172.812 15.9062C172.583 16.2188 172.354 16.5417 172.125 16.875C171.896 17.2083 171.698 17.5625 171.531 17.9375C171.365 18.3125 171.271 18.75 171.25 19.25C171.604 19.5417 172.021 19.7188 172.5 19.7812C172.979 19.8438 173.469 19.8542 173.969 19.8125C174.49 19.7708 174.99 19.7083 175.469 19.625C175.969 19.5208 176.427 19.4688 176.844 19.4688C177.719 19.2604 178.469 18.9896 179.094 18.6562C179.719 18.3021 180.375 17.9479 181.062 17.5938ZM204.312 6.40625C204.333 6.55208 204.333 6.66667 204.312 6.75C204.312 6.8125 204.302 6.875 204.281 6.9375C204.281 7 204.281 7.07292 204.281 7.15625C204.281 7.21875 204.302 7.32292 204.344 7.46875C203.906 8.17708 203.396 8.66667 202.812 8.9375C202.25 9.1875 201.635 9.375 200.969 9.5C200.302 9.60417 199.615 9.71875 198.906 9.84375C198.219 9.96875 197.531 10.2396 196.844 10.6562C196.573 10.5521 196.323 10.5521 196.094 10.6562C195.885 10.7604 195.573 10.7917 195.156 10.75C195.031 10.875 194.875 10.9688 194.688 11.0312C194.5 11.0729 194.312 11.125 194.125 11.1875C194.208 11.375 194.24 11.5729 194.219 11.7812C194.219 11.9688 194.25 12.125 194.312 12.25C195.042 12.3125 195.844 12.3021 196.719 12.2188C197.615 12.1354 198.49 12.0833 199.344 12.0625C199.365 12.1667 199.354 12.2396 199.312 12.2812C199.271 12.3021 199.26 12.3542 199.281 12.4375C199.427 12.5417 199.573 12.6771 199.719 12.8438C199.865 12.9896 200.01 13.1354 200.156 13.2812C200.302 13.4271 200.448 13.5521 200.594 13.6562C200.76 13.7396 200.948 13.7708 201.156 13.75C201.24 13.9167 201.292 14.1042 201.312 14.3125C201.354 14.5 201.333 14.6979 201.25 14.9062C200.917 15.1354 200.583 15.375 200.25 15.625C199.917 15.8542 199.562 16.0625 199.188 16.25C198.833 16.4375 198.448 16.5938 198.031 16.7188C197.635 16.8229 197.188 16.8646 196.688 16.8438C196.583 16.8438 196.5 16.8438 196.438 16.8438C196.396 16.8438 196.333 16.8125 196.25 16.75C196.083 16.8542 195.844 16.8854 195.531 16.8438C195.24 16.8021 195.01 16.8333 194.844 16.9375C194.615 16.8333 194.333 16.7917 194 16.8125C193.688 16.8125 193.406 16.7708 193.156 16.6875C192.823 17.125 192.521 17.5938 192.25 18.0938C191.979 18.5938 191.74 19.125 191.531 19.6875C192.24 19.7917 192.823 19.8333 193.281 19.8125C193.76 19.7917 194.208 19.7604 194.625 19.7188C195.042 19.6562 195.469 19.6042 195.906 19.5625C196.344 19.5 196.896 19.4792 197.562 19.5C197.979 19.2708 198.469 19.125 199.031 19.0625C199.615 18.9792 200.146 18.8542 200.625 18.6875C200.792 18.75 200.938 18.8646 201.062 19.0312C201.188 19.1771 201.302 19.3229 201.406 19.4688C201.531 19.5938 201.656 19.7083 201.781 19.8125C201.906 19.9167 202.062 19.9583 202.25 19.9375C202.333 20.0208 202.385 20.125 202.406 20.25C202.448 20.3542 202.479 20.4583 202.5 20.5625C202.521 20.6667 202.552 20.7604 202.594 20.8438C202.656 20.9062 202.75 20.9271 202.875 20.9062C202.562 21.5938 202.198 22.125 201.781 22.5C201.385 22.8542 200.927 23.125 200.406 23.3125C199.885 23.5 199.302 23.6458 198.656 23.75C198.031 23.8542 197.333 23.9792 196.562 24.125C196.375 24.1667 196.219 24.1562 196.094 24.0938C195.969 24.0521 195.823 24.0312 195.656 24.0312C195.177 24.1354 194.604 24.2292 193.938 24.3125C193.271 24.3958 192.594 24.4271 191.906 24.4062C191.219 24.3854 190.562 24.2917 189.938 24.125C189.312 23.9792 188.802 23.7083 188.406 23.3125C188.24 23.1667 188.125 23 188.062 22.8125C188.021 22.6042 187.885 22.4479 187.656 22.3438C187.635 22.0729 187.594 21.7708 187.531 21.4375C187.469 21.1042 187.406 20.7604 187.344 20.4062C187.281 20.0312 187.229 19.6667 187.188 19.3125C187.167 18.9583 187.188 18.6354 187.25 18.3438C187.312 18.0312 187.438 17.75 187.625 17.5C187.833 17.25 187.906 16.9792 187.844 16.6875C187.948 16.6667 188.01 16.6146 188.031 16.5312C188.052 16.4271 188.135 16.3854 188.281 16.4062C188.406 16.0312 188.542 15.6771 188.688 15.3438C188.833 15.0104 188.979 14.6875 189.125 14.375C189.292 14.0625 189.448 13.75 189.594 13.4375C189.76 13.1042 189.917 12.7396 190.062 12.3438C189.771 12.0729 189.552 11.7812 189.406 11.4688C189.281 11.1354 189.188 10.8125 189.125 10.5C189.062 10.1667 189.01 9.83333 188.969 9.5C188.927 9.14583 188.854 8.79167 188.75 8.4375C188.958 8.125 189.208 7.875 189.5 7.6875C189.812 7.47917 190.146 7.3125 190.5 7.1875C190.854 7.0625 191.24 6.95833 191.656 6.875C192.073 6.79167 192.51 6.69792 192.969 6.59375C193.802 6.32292 194.542 6.11458 195.188 5.96875C195.854 5.82292 196.5 5.70833 197.125 5.625C197.771 5.52083 198.438 5.42708 199.125 5.34375C199.812 5.26042 200.594 5.13542 201.469 4.96875C201.656 5.15625 201.833 5.25 202 5.25C202.083 5.0625 202.177 5.01042 202.281 5.09375C202.406 5.15625 202.458 5.09375 202.438 4.90625C202.646 5.26042 202.906 5.5625 203.219 5.8125C203.552 6.04167 203.917 6.23958 204.312 6.40625ZM204.062 9.9375C204.208 9.5 204.438 9.125 204.75 8.8125C205.083 8.5 205.438 8.23958 205.812 8.03125C206.208 7.80208 206.615 7.61458 207.031 7.46875C207.448 7.32292 207.844 7.19792 208.219 7.09375C209.052 6.73958 209.938 6.40625 210.875 6.09375C211.833 5.76042 212.802 5.46875 213.781 5.21875C214.781 4.96875 215.802 4.8125 216.844 4.75C217.885 4.66667 218.979 4.79167 220.125 5.125C220.188 5.33333 220.281 5.53125 220.406 5.71875C220.531 5.90625 220.656 6.09375 220.781 6.28125C220.927 6.46875 221.052 6.65625 221.156 6.84375C221.26 7.01042 221.323 7.1875 221.344 7.375C221.552 7.5625 221.719 7.77083 221.844 8C221.969 8.20833 221.99 8.48958 221.906 8.84375C221.698 9.01042 221.49 9.16667 221.281 9.3125C221.094 9.4375 220.885 9.55208 220.656 9.65625C219.885 9.46875 219.104 9.40625 218.312 9.46875C217.521 9.53125 216.812 9.58333 216.188 9.625C216 9.4375 215.771 9.34375 215.5 9.34375C215.25 9.34375 214.979 9.38542 214.688 9.46875C214.417 9.55208 214.135 9.63542 213.844 9.71875C213.573 9.80208 213.312 9.82292 213.062 9.78125C212.854 9.94792 212.594 10.0625 212.281 10.125C211.99 10.1667 211.667 10.2083 211.312 10.25C211.292 10.3542 211.312 10.4271 211.375 10.4688C211.438 10.4896 211.448 10.5521 211.406 10.6562C211.531 10.8021 211.688 10.9062 211.875 10.9688C212.083 11.0312 212.292 11.0938 212.5 11.1562C212.729 11.2188 212.927 11.3021 213.094 11.4062C213.26 11.4896 213.375 11.6354 213.438 11.8438C213.75 11.8438 214.021 11.9167 214.25 12.0625C214.479 12.2083 214.667 12.3854 214.812 12.5938C214.958 12.8021 215.062 13.0312 215.125 13.2812C215.208 13.5104 215.25 13.7188 215.25 13.9062C215.312 14.0729 215.385 14.1458 215.469 14.125C215.552 14.1042 215.646 14.1458 215.75 14.25C215.812 14.5208 215.969 14.8021 216.219 15.0938C216.469 15.3646 216.667 15.6667 216.812 16C216.854 16.5208 216.885 16.9896 216.906 17.4062C216.927 17.8021 216.854 18.2083 216.688 18.625C216.375 19.3958 215.938 20.0833 215.375 20.6875C214.833 21.2917 214.208 21.8333 213.5 22.3125C212.812 22.7708 212.073 23.1667 211.281 23.5C210.49 23.8333 209.719 24.1146 208.969 24.3438C208.885 24.3229 208.802 24.3229 208.719 24.3438C208.635 24.3646 208.615 24.3125 208.656 24.1875C208.49 24.3333 208.302 24.4271 208.094 24.4688C207.906 24.5104 207.698 24.5208 207.469 24.5C207.24 24.5 207 24.4896 206.75 24.4688C206.521 24.4479 206.302 24.4583 206.094 24.5C205.948 24.3542 205.812 24.2083 205.688 24.0625C205.583 23.9375 205.5 23.7708 205.438 23.5625C205.333 23.5625 205.281 23.5104 205.281 23.4062C205.302 23.3021 205.271 23.25 205.188 23.25C205.312 23.0417 205.365 22.9271 205.344 22.9062C205.344 22.8646 205.312 22.8333 205.25 22.8125C205.208 22.7917 205.167 22.7708 205.125 22.75C205.083 22.7083 205.073 22.6562 205.094 22.5938C205.177 22.4271 205.208 22.2396 205.188 22.0312C205.167 21.8021 205.146 21.5729 205.125 21.3438C205.104 21.1146 205.115 20.8958 205.156 20.6875C205.219 20.4792 205.375 20.3125 205.625 20.1875C206.333 20.2708 207 20.25 207.625 20.125C208.271 19.9792 208.875 19.7812 209.438 19.5312C210 19.2812 210.531 19.0104 211.031 18.7188C211.552 18.4271 212.062 18.1667 212.562 17.9375C212.625 17.75 212.708 17.5938 212.812 17.4688C212.938 17.3438 213.062 17.2292 213.188 17.125C213.312 17.0208 213.427 16.9062 213.531 16.7812C213.635 16.6562 213.708 16.5 213.75 16.3125C213.771 16.1667 213.729 16.0833 213.625 16.0625C213.542 16.0208 213.5 15.9375 213.5 15.8125L213.156 15.7188C212.76 15.4896 212.312 15.3021 211.812 15.1562C211.312 14.9896 210.885 14.8125 210.531 14.625C210.302 14.75 210.083 14.7812 209.875 14.7188C209.688 14.6562 209.438 14.5938 209.125 14.5312C208.417 14.4896 207.729 14.4167 207.062 14.3125C206.417 14.2083 205.792 14.0208 205.188 13.75C205.146 13.6458 205.094 13.5521 205.031 13.4688C204.969 13.3854 204.854 13.3646 204.688 13.4062C204.562 13.2396 204.438 13.0833 204.312 12.9375C204.188 12.7708 204.073 12.5938 203.969 12.4062C204.01 12.1562 204.042 11.9479 204.062 11.7812C204.083 11.5938 204.021 11.4167 203.875 11.25C203.958 10.9792 204.021 10.7604 204.062 10.5938C204.104 10.4271 204.104 10.2083 204.062 9.9375Z" fill="#3776B0"/>
</svg>
