<svg width="820" height="385" viewBox="0 0 820 385" fill="none" xmlns="http://www.w3.org/2000/svg">
<path d="M660.155 129.459L549.544 18.6486C524.724 -6.21622 484.527 -6.21622 459.842 18.6486C435.022 43.5135 435.022 83.7838 459.842 108.514L510.156 158.919C521.082 169.865 521.082 187.432 510.156 198.378C499.23 209.324 481.694 209.324 470.768 198.378L459.842 187.432C437.45 165 401.165 165 378.773 187.432C356.381 209.865 356.381 246.216 378.773 268.649L423.691 313.649C428.547 318.514 428.547 326.351 423.691 331.216C418.835 336.081 411.012 336.081 406.156 331.216L296.624 221.486C277.335 202.162 245.906 202.162 226.616 221.486C207.327 240.811 207.327 272.297 226.616 291.622L256.157 321.351C260.339 325.541 260.339 332.432 256.157 336.757C251.976 340.946 245.096 340.946 240.78 336.757L238.352 334.324C186.554 282.432 102.382 282.432 50.5839 334.324L0 385H820C820 385 650.308 139.324 660.155 129.459Z" fill="#F8F2EC"/>
<path d="M545 245C555.493 245 564 236.493 564 226C564 215.507 555.493 207 545 207C534.507 207 526 215.507 526 226C526 236.493 534.507 245 545 245Z" fill="white"/>
</svg>
