<svg width="1504" height="705" viewBox="0 0 1504 705" fill="none" xmlns="http://www.w3.org/2000/svg">
<g clip-path="url(#clip0_15_99)">
<path d="M293.18 237.062L496.055 34.1488C541.579 -11.3829 615.306 -11.3829 660.582 34.1488C706.106 79.6806 706.106 153.422 660.582 198.707L568.299 291.007C548.259 311.051 548.259 343.22 568.299 363.264C588.339 383.308 620.502 383.308 640.542 363.264L660.582 343.22C701.652 302.143 768.205 302.143 809.275 343.22C850.345 384.298 850.345 450.863 809.275 491.941L726.888 574.344C717.981 583.252 717.981 597.604 726.888 606.513C735.795 615.421 750.144 615.421 759.051 606.513L959.947 405.579C995.327 370.193 1052.97 370.193 1088.35 405.579C1123.73 440.965 1123.73 498.622 1088.35 534.008L1034.17 588.449C1026.5 596.12 1026.5 608.74 1034.17 616.659C1041.84 624.33 1054.46 624.33 1062.37 616.659L1066.83 612.204C1161.83 517.181 1316.22 517.181 1411.22 612.204L1504 705H0C0 705 311.241 255.126 293.18 237.062Z" fill="#F8F2EC"/>
</g>
<defs>
<clipPath id="clip0_15_99">
<rect width="1504" height="705" fill="white"/>
</clipPath>
</defs>
</svg>
