<svg width="293" height="56" viewBox="0 0 293 56" fill="none" xmlns="http://www.w3.org/2000/svg">
<g clip-path="url(#clip0_2_1936)">
<path d="M87.3131 15.7193C91.6355 15.7193 95.1395 12.2004 95.1395 7.85965C95.1395 3.51889 91.6355 0 87.3131 0C82.9907 0 79.4867 3.51889 79.4867 7.85965C79.4867 12.2004 82.9907 15.7193 87.3131 15.7193Z" fill="#3776B0"/>
<path d="M94.8948 48.1404C94.8948 52.3158 91.4708 56 87.0684 56C82.9107 56 79.2421 52.5614 79.2421 48.1404C79.2421 43.9649 82.6661 40.2807 87.0684 40.2807C91.4708 40.5263 94.8948 43.9649 94.8948 48.1404Z" fill="#3776B0"/>
<path d="M126.445 15.7193C130.767 15.7193 134.271 12.2004 134.271 7.85965C134.271 3.51889 130.767 0 126.445 0C122.123 0 118.619 3.51889 118.619 7.85965C118.619 12.2004 122.123 15.7193 126.445 15.7193Z" fill="#3776B0"/>
<path d="M134.271 48.1404C134.271 52.3158 130.847 56 126.445 56C122.287 56 118.619 52.5614 118.619 48.1404C118.619 43.9649 122.043 40.2807 126.445 40.2807C130.847 40.5263 134.271 43.9649 134.271 48.1404Z" fill="#3776B0"/>
<path d="M7.82638 15.7193C12.1488 15.7193 15.6528 12.2004 15.6528 7.85965C15.6528 3.51889 12.1488 0 7.82638 0C3.50399 0 0 3.51889 0 7.85965C0 12.2004 3.50399 15.7193 7.82638 15.7193Z" fill="#3776B0"/>
<path d="M15.4081 48.1404C15.4081 52.3158 11.9841 56 7.58175 56C3.42398 56 -0.244629 52.5614 -0.244629 48.1404C-0.244629 43.9649 3.17941 40.2807 7.58175 40.2807C11.9841 40.5263 15.4081 43.9649 15.4081 48.1404Z" fill="#3776B0"/>
<path d="M46.9582 15.7193C51.2806 15.7193 54.7846 12.2004 54.7846 7.85965C54.7846 3.51889 51.2806 0 46.9582 0C42.6358 0 39.1318 3.51889 39.1318 7.85965C39.1318 12.2004 42.6358 15.7193 46.9582 15.7193Z" fill="#3776B0"/>
<path d="M54.7846 48.1404C54.7846 52.3158 51.3606 56 46.9582 56C42.8005 56 39.1318 52.5614 39.1318 48.1404C39.1318 43.9649 42.5559 40.2807 46.9582 40.2807C51.3606 40.5263 54.7846 43.9649 54.7846 48.1404Z" fill="#3776B0"/>
<path d="M246.042 15.7193C250.364 15.7193 253.868 12.2004 253.868 7.85965C253.868 3.51889 250.364 0 246.042 0C241.719 0 238.215 3.51889 238.215 7.85965C238.215 12.2004 241.719 15.7193 246.042 15.7193Z" fill="#3776B0"/>
<path d="M253.868 48.1404C253.868 52.3158 250.444 56 246.042 56C241.884 56 238.215 52.5614 238.215 48.1404C238.215 43.9649 241.639 40.2807 246.042 40.2807C250.444 40.5263 253.868 43.9649 253.868 48.1404Z" fill="#3776B0"/>
<path d="M293 7.85965C293 12.0351 289.576 15.7193 285.174 15.7193C281.016 15.7193 277.347 12.2807 277.347 7.85965C277.347 3.68421 280.771 0 285.174 0C289.576 0 293 3.4386 293 7.85965Z" fill="#3776B0"/>
<path d="M293 48.1404C293 52.3158 289.576 56 285.174 56C281.016 56 277.347 52.5614 277.347 48.1404C277.347 43.9649 280.771 40.2807 285.174 40.2807C289.576 40.5263 293 43.9649 293 48.1404Z" fill="#3776B0"/>
<path d="M166.555 15.7193C170.877 15.7193 174.381 12.2004 174.381 7.85965C174.381 3.51889 170.877 0 166.555 0C162.233 0 158.729 3.51889 158.729 7.85965C158.729 12.2004 162.233 15.7193 166.555 15.7193Z" fill="#3776B0"/>
<path d="M174.381 48.1404C174.381 52.3158 170.957 56 166.555 56C162.397 56 158.729 52.5614 158.729 48.1404C158.729 43.9649 162.153 40.2807 166.555 40.2807C170.957 40.5263 174.381 43.9649 174.381 48.1404Z" fill="#3776B0"/>
<path d="M205.931 15.7193C210.254 15.7193 213.758 12.2004 213.758 7.85965C213.758 3.51889 210.254 0 205.931 0C201.609 0 198.105 3.51889 198.105 7.85965C198.105 12.2004 201.609 15.7193 205.931 15.7193Z" fill="#3776B0"/>
<path d="M213.513 48.1404C213.513 52.3158 210.089 56 205.687 56C201.529 56 197.86 52.5614 197.86 48.1404C197.86 43.9649 201.285 40.2807 205.687 40.2807C210.089 40.5263 213.513 43.9649 213.513 48.1404Z" fill="#3776B0"/>
</g>
<defs>
<clipPath id="clip0_2_1936">
<rect width="293" height="56" fill="white"/>
</clipPath>
</defs>
</svg>
