<svg width="1063" height="498" viewBox="0 0 1063 498" fill="none" xmlns="http://www.w3.org/2000/svg">
<path d="M207.097 167.457L350.405 24.1221C382.562 -8.04072 434.642 -8.04072 466.624 24.1221C498.781 56.285 498.781 108.375 466.624 140.363L401.437 205.563C387.281 219.721 387.281 242.445 401.437 256.604C415.593 270.762 438.312 270.762 452.468 256.604L466.624 242.445C495.635 213.429 542.647 213.429 571.658 242.445C600.669 271.462 600.669 318.482 571.658 347.499L513.461 405.707C507.17 411.999 507.17 422.138 513.461 428.43C519.753 434.723 529.889 434.723 536.181 428.43L678.09 286.494C703.082 261.498 743.802 261.498 768.794 286.494C793.785 311.49 793.785 352.218 768.794 377.214L730.52 415.67C725.102 421.089 725.102 430.004 730.52 435.597C735.938 441.016 744.851 441.016 750.443 435.597L753.589 432.451C820.699 365.328 929.753 365.328 996.863 432.451L1062.4 498H0C0 498 219.855 180.217 207.097 167.457Z" fill="white"/>
<path d="M344.45 463.762L526.013 281.162" stroke="#F8F2EC" stroke-width="3" stroke-miterlimit="10" stroke-linecap="round"/>
<path d="M213.725 275.975L377.65 113.088" stroke="#F8F2EC" stroke-width="3" stroke-miterlimit="10" stroke-linecap="round"/>
<path d="M356.9 323.7C372.944 323.7 385.95 310.694 385.95 294.65C385.95 278.606 372.944 265.6 356.9 265.6C340.856 265.6 327.85 278.606 327.85 294.65C327.85 310.694 340.856 323.7 356.9 323.7Z" fill="#F8F2EC"/>
</svg>
