<svg width="1024" height="480" viewBox="0 0 1024 480" fill="none" xmlns="http://www.w3.org/2000/svg">
<path d="M199.612 161.404L337.74 23.2503C368.734 -7.75009 418.932 -7.75009 449.758 23.2503C480.753 54.2506 480.753 104.458 449.758 135.29L386.927 198.133C373.282 211.78 373.282 233.682 386.927 247.329C400.571 260.976 422.469 260.976 436.114 247.329L449.758 233.682C477.721 205.714 523.033 205.714 550.996 233.682C578.958 261.65 578.958 306.971 550.996 334.939L494.902 391.042C488.838 397.108 488.838 406.88 494.902 412.945C500.967 419.01 510.737 419.01 516.801 412.945L653.581 276.139C677.669 252.046 716.918 252.046 741.006 276.139C765.094 300.232 765.094 339.488 741.006 363.58L704.116 400.646C698.894 405.869 698.894 414.461 704.116 419.853C709.338 425.075 717.929 425.075 723.319 419.853L726.351 416.82C791.035 352.124 896.147 352.124 960.832 416.82L1024 480H0C0 480 211.909 173.703 199.612 161.404Z" fill="white"/>
<path d="M332 447L507 271" stroke="#F8F2EC" stroke-width="3" stroke-miterlimit="10" stroke-linecap="round"/>
<path d="M206 266L364 109" stroke="#F8F2EC" stroke-width="3" stroke-miterlimit="10" stroke-linecap="round"/>
<path d="M344 312C359.464 312 372 299.464 372 284C372 268.536 359.464 256 344 256C328.536 256 316 268.536 316 284C316 299.464 328.536 312 344 312Z" fill="#F8F2EC"/>
</svg>
