<svg width="806" height="559" viewBox="0 0 806 559" fill="none" xmlns="http://www.w3.org/2000/svg">
<path d="M0 62.2148L40.7904 102.965C69.1257 131.273 115.054 131.273 143.234 102.965L166.587 79.6349C171.569 74.6578 179.509 74.6578 184.491 79.6349L184.647 79.7905C189.784 84.9232 189.784 93.1667 184.647 98.2994C176.862 106.076 122.683 160.203 110.383 172.491C84.5389 198.31 84.5389 240.149 110.383 265.968C136.228 291.787 178.108 291.787 203.952 265.968L430.635 39.5064L480.455 46.35L397.94 128.785C361.976 164.714 361.976 223.04 397.94 258.969C433.904 294.898 492.287 294.898 528.251 258.969L654.359 132.984C659.808 127.54 668.683 127.54 674.132 132.984C679.581 138.428 679.581 147.294 674.132 152.737L487.617 339.382C467.222 359.757 467.222 392.575 487.617 412.951C508.012 433.326 540.862 433.326 561.257 412.951L690.635 283.699C696.551 277.789 706.048 277.789 711.808 283.699C717.725 289.61 717.725 299.098 711.808 304.853L709.473 307.186C666.503 350.114 666.503 419.639 709.473 462.567L806 559V0" fill="white"/>
<path d="M746 272C761.464 272 774 259.464 774 244C774 228.536 761.464 216 746 216C730.536 216 718 228.536 718 244C718 259.464 730.536 272 746 272Z" fill="#F8F2EC"/>
</svg>
